<mxfile host="app.diagrams.net" modified="2023-10-18T03:19:38.329Z" agent="Mozilla/5.0 (Macintosh; Intel Mac OS X 10_15_7) AppleWebKit/605.1.15 (KHTML, like Gecko) Version/17.0 Safari/605.1.15" etag="IVyOkuPGOkOXRKbK7keD" version="22.0.4" type="github">
  <diagram name="第 1 页" id="bqGeH0BVxCEKQSWIX7b8">
    <mxGraphModel dx="454" dy="537" grid="0" gridSize="10" guides="1" tooltips="1" connect="1" arrows="1" fold="1" page="1" pageScale="1" pageWidth="827" pageHeight="1169" math="0" shadow="0">
      <root>
        <mxCell id="0" />
        <mxCell id="1" parent="0" />
        <mxCell id="bzYpuRA7pLFzJ5V_6K2n-1" value="原始交易数据中频繁出现的长字段数据" style="rounded=1;whiteSpace=wrap;html=1;fillColor=#f5f5f5;strokeColor=#666666;fontColor=#333333;" parent="1" vertex="1">
          <mxGeometry x="350" y="310" width="180" height="60" as="geometry" />
        </mxCell>
        <mxCell id="bzYpuRA7pLFzJ5V_6K2n-2" value="&lt;font style=&quot;font-size: 7px;&quot;&gt;Alias-Chain&lt;/font&gt;" style="shape=singleArrow;direction=south;whiteSpace=wrap;html=1;fillColor=#b1ddf0;strokeColor=#10739e;" parent="1" vertex="1">
          <mxGeometry x="375" y="380" width="130" height="150" as="geometry" />
        </mxCell>
        <mxCell id="bzYpuRA7pLFzJ5V_6K2n-3" value="短别名" style="rounded=1;whiteSpace=wrap;html=1;fillColor=#f5f5f5;strokeColor=#666666;fontColor=#333333;" parent="1" vertex="1">
          <mxGeometry x="380" y="547" width="120" height="40" as="geometry" />
        </mxCell>
      </root>
    </mxGraphModel>
  </diagram>
</mxfile>
